<?xml version="1.0" standalone="no"?>
<!DOCTYPE svg PUBLIC "-//W3C//DTD SVG 20010904//EN"
 "http://www.w3.org/TR/2001/REC-SVG-20010904/DTD/svg10.dtd">
<svg version="1.0" xmlns="http://www.w3.org/2000/svg"
 width="1800.000000pt" height="1800.000000pt" viewBox="0 0 1800.000000 1800.000000"
 preserveAspectRatio="xMidYMid meet">

<g transform="translate(0.000000,1800.000000) scale(0.100000,-0.100000)"
fill="#000000" stroke="none">
<path d="M4007 9000 c-1775 -3074 -3227 -5591 -3227 -5594 0 -3 2090 -6 4645
-6 2555 0 4645 3 4645 7 0 3 -255 449 -567 989 l-568 984 -2367 2 -2367 3
1516 2628 1516 2629 17 -29 c10 -15 950 -1645 2090 -3621 l2072 -3592 1140 0
c953 0 1139 2 1135 13 -7 20 -6436 11160 -6445 11169 -4 4 -1460 -2508 -3235
-5582z"/>
<path d="M8053 14578 c3 -7 257 -449 565 -983 l560 -970 2169 -5 c2399 -6
2221 -1 2481 -70 688 -184 1199 -713 1367 -1415 68 -282 75 -639 19 -913 -37
-182 -91 -336 -175 -502 -267 -528 -737 -882 -1349 -1016 l-125 -28 -1047 -3
c-577 -2 -1048 -8 -1048 -12 0 -10 726 -1271 2083 -3621 l945 -1635 1137 -3
c1031 -2 1137 -1 1131 14 -3 8 -464 808 -1023 1776 -560 969 -1019 1764 -1021
1767 -1 4 44 26 100 50 676 287 1269 770 1691 1374 481 688 727 1502 703 2322
-15 534 -99 954 -286 1430 -57 145 -218 462 -304 600 -494 786 -1233 1369
-2096 1653 -263 87 -447 130 -750 175 l-145 21 -2794 3 c-2258 3 -2792 1
-2788 -9z"/>
</g>
</svg>
